PathFileType	4	(X/Y/Z)	OpenSim_Sub08_EMGBaseline_Magnet.trc
DataRate	CameraRate	NumFrames	NumMarkers	Units	OrigDataRate	OrigDataStartFrame	OrigNumFrames
100	100	13	8	m	100	832	6654
Frame#	Time	torso_imu_offset_imu	pelvis_imu_offset_imu	tibia_r_imu_offset_imu	femur_r_imu_offset_imu	tibia_l_imu_offset_imu	femur_l_imu_offset_imu	toes_r_imu_offset_imu	toes_l_imu_offset_imu
				X1	Y1	Z1	X2	Y2	Z2	X3	Y3	Z3	X4	Y4	Z4	X5	Y5	Z5	X6	Y6	Z6	X7	Y7	Z7	X8		Y8	Z8	

832	8.31000000	-0.94566637	-0.14020522	0.07935310	-0.64755611	0.17188928	-0.67113014	-0.78072836	-0.23962406	-0.11749862	-0.84570575	-0.14348314	-0.11393091	-0.55596111	0.49630771	0.37187755	-0.62601383	0.31669412	0.46391847	-0.51104994	-0.07218039	-0.60584243	-0.79860933	-0.18507386	-0.37035014
833	8.32000000	-0.94521547	-0.14233001	0.07396756	-0.64190921	0.17376805	-0.67470219	-0.78609941	-0.22309405	-0.11829298	-0.83793382	-0.15247478	-0.11342134	-0.55322316	0.49906823	0.37669080	-0.62236838	0.32752869	0.46603336	-0.50081423	-0.06122829	-0.61635795	-0.81003359	-0.18509597	-0.35740392
834	8.33000000	-0.94157563	-0.14032824	0.07609651	-0.64271727	0.17589786	-0.67511157	-0.78686761	-0.20842815	-0.11986449	-0.83966901	-0.15781823	-0.11636421	-0.54262839	0.50835479	0.37794777	-0.61481780	0.32444739	0.46316135	-0.49221554	-0.04698337	-0.62698892	-0.81085663	-0.18378503	-0.34351965
835	8.34000000	-0.94215070	-0.14130081	0.08508470	-0.64258102	0.17806670	-0.67697952	-0.79391658	-0.19973101	-0.12055518	-0.84465506	-0.16391106	-0.11535914	-0.53747986	0.51798540	0.37163918	-0.61487733	0.32934826	0.46492618	-0.48362081	-0.03943973	-0.62841042	-0.81653126	-0.18831316	-0.33932298
836	8.35000000	-0.93828751	-0.14323133	0.08109790	-0.63792143	0.17457117	-0.67713151	-0.79633966	-0.19034536	-0.12513300	-0.83745786	-0.16717117	-0.11326325	-0.53373132	0.52393053	0.37634875	-0.61426419	0.33469310	0.45477053	-0.48206757	-0.03111989	-0.63355847	-0.82021870	-0.18972042	-0.33029226
837	8.36000000	-0.93943834	-0.14234574	0.08053036	-0.63751544	0.17733068	-0.68082111	-0.79805980	-0.18096339	-0.11438640	-0.83905883	-0.17134296	-0.11755832	-0.52328669	0.53101750	0.38037212	-0.61216877	0.33738140	0.45777612	-0.48250267	-0.02416822	-0.63668977	-0.82545185	-0.18898282	-0.32189077
838	8.37000000	-0.93759283	-0.14895135	0.08417794	-0.63623106	0.18735347	-0.67939728	-0.80005974	-0.17623556	-0.11490452	-0.83999860	-0.17254259	-0.11030775	-0.51797822	0.53613562	0.38152684	-0.60902794	0.34518942	0.46977263	-0.47613803	-0.02069965	-0.63898546	-0.82855627	-0.19044704	-0.30785559
839	8.38000000	-0.93817025	-0.14706036	0.08432106	-0.63749515	0.18372302	-0.67947000	-0.79542566	-0.17715116	-0.11489336	-0.83305236	-0.18139789	-0.10337741	-0.51333922	0.54295644	0.37612035	-0.60596528	0.34514125	0.46349831	-0.46860155	-0.01646841	-0.64013713	-0.83006403	-0.19332367	-0.29713676
840	8.39000000	-0.94648009	-0.14727675	0.08599318	-0.63738277	0.18645859	-0.68350801	-0.79858918	-0.18100162	-0.11384182	-0.83818434	-0.18508275	-0.09655284	-0.50667896	0.55468551	0.37958601	-0.60660525	0.34680631	0.46638784	-0.47177787	-0.01562362	-0.64095387	-0.82992656	-0.20391701	-0.27596590
841	8.40000000	-0.94322199	-0.15527056	0.08669029	-0.63403343	0.18834481	-0.67746572	-0.80042438	-0.18341010	-0.11198594	-0.83893391	-0.18504162	-0.09467156	-0.49867999	0.56034441	0.37907533	-0.60073716	0.35188478	0.46532416	-0.47545147	-0.01214243	-0.64233554	-0.83132037	-0.21000999	-0.25994164
842	8.41000000	-0.94207139	-0.15081934	0.08393515	-0.63826687	0.18763002	-0.67837219	-0.79623533	-0.18877951	-0.11239978	-0.83431767	-0.18732740	-0.08540991	-0.48841796	0.56859016	0.37755130	-0.59554673	0.35518334	0.46238891	-0.47678189	-0.01442523	-0.63709542	-0.82716101	-0.21691477	-0.24671736
843	8.42000000	-0.94378347	-0.15052202	0.08311929	-0.63719076	0.19144125	-0.68434300	-0.79567747	-0.20037114	-0.10465592	-0.83388744	-0.19187262	-0.07607375	-0.48273304	0.57913192	0.37362445	-0.59956494	0.35780876	0.46628413	-0.48092263	-0.01327496	-0.62912957	-0.82770092	-0.22177981	-0.22901815
844	8.43000000	-0.93753516	-0.15431825	0.08540518	-0.63321505	0.19202346	-0.68622226	-0.79980699	-0.21333835	-0.09795777	-0.83149906	-0.19768932	-0.07439737	-0.47171997	0.58377316	0.37054484	-0.60001779	0.36339937	0.46462843	-0.48670580	-0.01888495	-0.62872949	-0.82787872	-0.22641824	-0.21203676
